<svg width="253" height="82" viewBox="0 0 253 82" fill="none" xmlns="http://www.w3.org/2000/svg">
<g clip-path="url(#clip0_26_3)">
<mask id="mask0_26_3" style="mask-type:luminance" maskUnits="userSpaceOnUse" x="0" y="0" width="253" height="82">
<path d="M252.13 0H0V81.69H252.13V0Z" fill="white"/>
</mask>
<g mask="url(#mask0_26_3)">
<path fill-rule="evenodd" clip-rule="evenodd" d="M171.1 55.1C144.75 55.1 118.4 55.1 92.06 55.1C91.72 55.1 91.37 55.1 91.03 55.03C90.49 54.92 90.15 54.37 90.13 53.69C90.11 52.96 90.43 52.37 90.99 52.22C91.34 52.13 91.71 52.12 92.08 52.12C119.41 52.12 146.74 52.12 174.06 52.12C199.31 52.12 224.57 52.12 249.82 52.12C250.22 52.12 250.63 52.11 251.03 52.16C251.72 52.25 252.15 52.86 252.13 53.67C252.11 54.45 251.69 55 251.02 55.08C250.73 55.11 250.44 55.11 250.16 55.11C223.81 55.11 197.46 55.11 171.12 55.11L171.1 55.1Z" fill="url(#paint0_linear_26_3)"/>
<path fill-rule="evenodd" clip-rule="evenodd" d="M123.2 68.61C123.9 68.12 124.48 67.63 125.14 67.26C125.89 66.84 126.62 67.09 127.16 67.68C127.57 68.12 127.79 68.02 128.26 67.75C128.93 67.37 129.7 67.14 130.46 66.96C131.15 66.79 131.76 67.15 131.94 67.79C132.25 68.9 132.47 70.04 132.6 71.19C132.73 72.37 132.73 73.56 132.75 74.75C132.77 75.59 132.29 76.06 131.49 76.05C130.75 76.04 130.4 75.64 130.41 74.78C130.41 73.12 130.45 71.46 130.44 69.8C130.44 68.83 130.14 68.4 129.56 68.42C128.83 68.45 127.92 69.38 127.96 70.08C128.06 71.69 128.17 73.29 128.27 74.9C128.31 75.55 128.04 76 127.4 76.2C126.52 76.47 125.93 76.05 125.95 75.13C125.97 73.64 126.03 72.16 126 70.67C125.99 70.12 125.81 69.56 125.61 69.03C125.44 68.58 125.08 68.47 124.66 68.8C123.81 69.46 123.21 70.31 123.29 71.38C123.37 72.63 123.65 73.87 123.85 75.12C124 76.1 123.23 76.77 122.31 76.38C122.02 76.26 121.68 75.9 121.63 75.6C121.3 73.32 121.03 71.04 120.75 68.75C120.66 68.05 121.07 67.67 121.66 67.49C122.24 67.32 122.66 67.59 122.93 68.12C123.02 68.29 123.12 68.45 123.2 68.6V68.61Z" fill="white"/>
<path fill-rule="evenodd" clip-rule="evenodd" d="M178.22 74.84C177.05 75.67 175.88 75.77 174.68 75.64C173.25 75.49 172.08 74.55 171.79 73.23C171.55 72.13 171.95 71.12 172.55 70.21C173.46 68.84 174.76 67.93 176.3 67.42C177.05 67.17 177.18 66.83 177.04 66.11C176.86 65.19 176.79 64.24 176.72 63.31C176.66 62.49 177.1 62.07 177.99 62.03C178.79 61.99 179.11 62.35 179.15 63.19C179.28 65.79 179.38 68.39 179.61 70.98C179.75 72.55 180.14 74.1 180.35 75.67C180.39 75.96 180.15 76.5 179.95 76.55C179.54 76.65 179.06 76.55 178.64 76.41C178.49 76.36 178.42 76 178.36 75.77C178.3 75.54 178.29 75.29 178.23 74.84H178.22ZM177.68 72.89C177.56 71.58 177.45 70.47 177.35 69.36C177.31 68.89 177.16 68.72 176.63 68.89C174.54 69.55 174 71.45 174.42 73.21C174.62 74.05 175.44 74.48 176.26 74.33C177.07 74.18 177.7 73.44 177.68 72.88V72.89Z" fill="white"/>
<path fill-rule="evenodd" clip-rule="evenodd" d="M246.62 68.58C247.39 68.11 248.06 67.58 248.82 67.28C250.25 66.73 251.51 67.47 251.69 69.01C251.92 70.98 252.02 72.96 252.12 74.94C252.16 75.7 251.56 76.16 250.72 76.12C249.97 76.09 249.68 75.74 249.69 74.9C249.71 73.51 249.75 72.12 249.72 70.74C249.72 70.2 249.6 69.66 249.45 69.14C249.28 68.52 248.93 68.41 248.39 68.75C247.2 69.48 246.7 70.64 246.69 71.95C246.69 72.98 246.9 74.01 247.03 75.05C247.14 76.02 246.96 76.4 246.31 76.49C245.58 76.59 245.01 76.17 244.89 75.32C244.62 73.31 244.4 71.29 244.19 69.27C244.12 68.65 244.11 67.99 244.88 67.73C245.58 67.49 246.02 67.71 246.55 68.53C246.58 68.57 246.62 68.59 246.62 68.59V68.58Z" fill="white"/>
<path fill-rule="evenodd" clip-rule="evenodd" d="M161.14 72.37C161.23 71.89 161.3 71.64 161.32 71.39C161.4 70.3 161.47 69.22 161.55 68.13C161.61 67.35 162.19 66.89 162.97 67C163.65 67.1 163.98 67.61 163.8 68.38C163.16 71.17 162.7 73.98 162.68 76.84C162.68 77.89 162.86 78.96 163.04 80C163.24 81.21 162.49 82 161.34 81.58C161.04 81.47 160.74 80.9 160.73 80.53C160.65 79 160.64 77.46 160.7 75.93C160.72 75.3 160.65 74.76 160.25 74.27C159.46 73.28 158.67 72.3 157.92 71.28C157.62 70.87 157.33 70.4 157.26 69.92C157.21 69.6 157.47 69.12 157.74 68.89C158.14 68.56 158.62 68.77 158.91 69.16C159.46 69.89 159.96 70.66 160.49 71.41C160.67 71.66 160.84 71.92 161.15 72.37H161.14Z" fill="white"/>
<path fill-rule="evenodd" clip-rule="evenodd" d="M205.18 71.46C205.18 73.6 203.86 75.5 201.89 76.21C200.07 76.87 198.15 75.81 197.82 73.91C197.34 71.19 198.3 68.96 200.31 67.14C200.45 67.01 200.72 66.94 200.92 66.97C203.58 67.26 205 68.54 205.18 71.45V71.46ZM199.97 72.69C200.02 72.99 200.05 73.52 200.22 74.01C200.58 75.05 201.31 75.17 202.06 74.37C203.21 73.13 203.22 70.24 202.1 68.95C201.71 68.51 201.39 68.59 201.07 69C200.28 70.02 200.03 71.22 199.96 72.7L199.97 72.69Z" fill="white"/>
<path fill-rule="evenodd" clip-rule="evenodd" d="M242.41 71.43C242.43 73.62 241.11 75.53 239.09 76.24C237.32 76.86 235.49 75.83 235.1 73.99C234.65 71.89 235.19 70 236.47 68.33C236.89 67.79 237.49 67.09 238.06 67.04C239.09 66.96 240.17 67.25 241.01 68.03C242 68.95 242.38 70.12 242.41 71.44V71.43ZM240.22 71.27C240.05 70.8 239.78 69.88 239.39 69.02C239.15 68.5 238.68 68.51 238.34 68.99C237.22 70.57 236.95 72.32 237.54 74.15C237.81 75 238.5 75.12 239.16 74.52C239.97 73.78 240.19 72.8 240.23 71.27H240.22Z" fill="white"/>
<path fill-rule="evenodd" clip-rule="evenodd" d="M111.29 71.17C111.29 73.39 110.45 74.86 108.83 75.85C106.64 77.2 104.29 76.1 103.87 73.55C103.57 71.71 104.14 70.05 105.18 68.59C105.64 67.95 106.35 67.1 107 67.05C108.3 66.95 109.58 67.43 110.43 68.61C111.04 69.47 111.32 70.42 111.29 71.17ZM106.1 72.65C106.14 72.92 106.1 73.38 106.27 73.74C106.48 74.17 106.84 74.77 107.21 74.82C107.57 74.88 108.13 74.43 108.41 74.05C109.33 72.84 109.22 70.22 108.29 69C107.93 68.52 107.59 68.51 107.23 68.97C106.41 70 106.14 71.21 106.09 72.64L106.1 72.65Z" fill="white"/>
<path fill-rule="evenodd" clip-rule="evenodd" d="M218.71 75.22C217.81 75.57 216.99 75.88 216.16 76.18C215.98 76.25 215.77 76.25 215.57 76.26C214.25 76.3 213.73 75.69 214.03 74.41C214.35 73.07 215.36 72.24 216.35 71.41C216.9 70.95 217.48 70.53 218.06 70.1C218.37 69.87 218.68 69.65 218.45 69.2C218.22 68.74 217.91 68.26 217.33 68.45C216.78 68.62 216.24 68.92 215.78 69.28C215.3 69.66 214.92 69.66 214.58 69.2C214.26 68.77 214.35 68.3 214.83 68.07C215.72 67.66 216.62 67.2 217.57 66.99C218.84 66.71 219.7 67.3 220.25 68.77C220.99 70.77 221.24 72.85 220.88 74.98C220.77 75.64 220.61 76.2 219.81 76.26C219.05 76.31 218.78 75.82 218.69 75.22H218.71ZM218.64 71.33C217.6 71.98 216.63 72.68 216.13 73.83C215.87 74.41 216.3 74.89 216.91 74.78C218.41 74.51 219.29 72.82 218.64 71.33Z" fill="white"/>
<path fill-rule="evenodd" clip-rule="evenodd" d="M138.91 75.24C138.05 75.56 137.25 75.92 136.41 76.16C135.71 76.37 134.89 76.41 134.42 75.76C133.92 75.07 134.2 74.27 134.59 73.59C135.43 72.09 136.86 71.2 138.17 70.19C138.58 69.88 138.93 69.61 138.63 69.05C138.33 68.5 137.87 68.23 137.27 68.51C136.8 68.72 136.35 68.99 135.96 69.32C135.53 69.67 135.2 69.62 134.87 69.25C134.53 68.87 134.53 68.43 134.96 68.16C136.07 67.45 137.26 66.77 138.62 67C139.18 67.09 139.86 67.62 140.14 68.13C141.39 70.48 141.49 73.01 140.97 75.57C140.91 75.86 140.33 76.2 139.98 76.21C139.68 76.23 139.34 75.83 139.05 75.58C138.96 75.5 138.95 75.32 138.93 75.24H138.91ZM138.92 71.42C138.07 71.68 136.65 72.98 136.38 73.75C136.15 74.39 136.46 74.86 137.07 74.79C138.55 74.63 139.54 72.84 138.93 71.42H138.92Z" fill="white"/>
<path fill-rule="evenodd" clip-rule="evenodd" d="M100.6 66.22C100.6 66.29 100.6 66.37 100.6 66.44C100.63 67.74 100.66 67.75 101.9 67.36C102.31 67.23 102.82 66.93 103.03 67.56C103.24 68.2 102.81 68.48 102.23 68.64C100.86 69.04 100.88 69.05 101.11 70.47C101.39 72.2 101.65 73.94 101.91 75.68C102 76.27 101.64 76.79 101.09 76.9C100.48 77.02 99.8101 76.68 99.6801 76.1C99.5401 75.47 99.4601 74.83 99.3901 74.19C99.2301 72.81 99.0701 71.44 98.9401 70.06C98.8901 69.57 98.7201 69.32 98.1801 69.25C97.9101 69.22 97.6801 68.89 97.4301 68.7C97.6301 68.46 97.7901 68.09 98.0501 68.01C98.5501 67.85 98.6301 67.57 98.6001 67.12C98.5201 65.88 98.6901 64.7 99.4201 63.65C100.26 62.44 101.75 61.86 103.06 62.27C103.84 62.51 104.19 63.11 103.91 63.72C103.7 64.18 103.34 64.31 102.95 64.05C102.53 63.76 102.09 63.35 101.64 63.75C101.23 64.12 100.94 64.67 100.7 65.19C100.56 65.48 100.63 65.87 100.6 66.22C100.6 66.22 100.62 66.22 100.63 66.22H100.6Z" fill="white"/>
<path fill-rule="evenodd" clip-rule="evenodd" d="M144.82 72C144.5 72.02 144.18 72.04 143.85 72.04C142.95 72.07 142.44 71.47 142.57 70.57C142.75 69.39 144.64 67.27 145.79 66.97C146.98 66.66 148.18 67.54 148.13 68.76C148.12 69.06 147.82 69.5 147.55 69.59C147.25 69.69 146.74 69.58 146.49 69.37C145.74 68.73 145.32 68.72 144.8 69.51C144.46 70.02 144.61 70.33 145.25 70.39C146.06 70.46 146.89 70.44 147.68 70.63C149.5 71.05 150.4 72.63 149.8 74.21C149.06 76.17 145.74 77.14 144.07 75.9C143.19 75.24 143.31 73.5 144.33 73.06C144.65 72.92 145.2 73.06 145.53 73.25C145.94 73.49 145.84 73.92 145.55 74.28C145.22 74.7 145.36 75.01 145.87 75.04C146.33 75.07 146.84 75.06 147.25 74.88C148.29 74.44 148.41 73.06 147.4 72.51C146.66 72.11 145.73 72.04 144.88 71.83C144.87 71.89 144.85 71.95 144.83 72H144.82Z" fill="white"/>
<path fill-rule="evenodd" clip-rule="evenodd" d="M96.03 69.36C95.72 69.79 95.5 70.31 95.1 70.6C94.39 71.13 93.56 71.5 92.81 71.97C92.13 72.39 92.22 73.85 92.95 74.14C93.18 74.23 93.6 74.11 93.81 73.94C94.38 73.46 94.87 72.9 95.4 72.38C96.09 71.7 96.7 71.51 96.98 71.92C97.48 72.65 96.84 73.09 96.41 73.46C95.39 74.33 94.34 75.15 93.25 75.93C92.43 76.52 91.64 76.32 91.14 75.43C90.89 74.98 90.73 74.48 90.57 73.99C90.43 73.53 90.42 73.04 89.88 72.75C89.75 72.68 89.74 71.98 89.91 71.82C90.33 71.41 90.38 70.96 90.46 70.43C90.58 69.61 90.78 68.78 91.07 68C91.46 66.9 91.83 66.76 93 66.92C94 67.06 94.84 67.5 95.49 68.26C95.71 68.52 95.81 68.9 96.03 69.37V69.36ZM92.25 70.32C92.33 70.39 92.42 70.46 92.5 70.52C92.95 70.29 93.41 70.08 93.83 69.81C93.97 69.72 94.13 69.37 94.07 69.29C93.87 69.01 93.6 68.73 93.3 68.57C93.18 68.5 92.77 68.66 92.71 68.81C92.51 69.29 92.4 69.81 92.25 70.31V70.32Z" fill="white"/>
<path fill-rule="evenodd" clip-rule="evenodd" d="M187.71 69.42C187.39 69.83 187.12 70.34 186.7 70.65C185.99 71.17 185.15 71.52 184.42 72.03C184.18 72.2 183.95 72.66 184.01 72.92C184.11 73.37 184.39 73.81 184.7 74.15C184.79 74.25 185.32 74.08 185.53 73.9C186.09 73.42 186.57 72.84 187.11 72.34C187.54 71.95 188.06 71.35 188.62 71.92C189.21 72.51 188.58 73.03 188.15 73.39C187.11 74.27 186.04 75.11 184.94 75.9C184.08 76.52 183.3 76.3 182.78 75.37C182.56 74.99 182.41 74.56 182.29 74.13C182.14 73.6 182.2 73 181.53 72.7C181.43 72.66 181.43 71.94 181.61 71.78C182.04 71.38 182.11 70.93 182.18 70.4C182.27 69.65 182.44 68.89 182.68 68.17C183.11 66.9 183.47 66.72 184.77 66.91C185.77 67.06 186.6 67.53 187.22 68.31C187.42 68.56 187.5 68.92 187.72 69.41L187.71 69.42ZM184.9 68.37C184.63 68.61 184.39 68.73 184.34 68.89C184.2 69.37 184.14 69.87 184.05 70.36C184.47 70.23 184.92 70.15 185.3 69.94C185.52 69.82 185.8 69.4 185.74 69.28C185.57 68.95 185.23 68.7 184.9 68.37Z" fill="white"/>
<path fill-rule="evenodd" clip-rule="evenodd" d="M84.81 68.88C85 68.68 85.11 68.54 85.25 68.42C85.65 68.1 86.03 67.71 86.49 67.51C87.94 66.88 89.1 67.74 89.01 69.31C88.98 69.86 88.74 70.29 88.17 70.37C87.64 70.44 87.31 70.17 87.15 69.62C86.93 68.9 86.52 68.81 85.95 69.32C85.13 70.05 84.61 70.83 84.98 72.04C85.28 73.05 85.34 74.13 85.56 75.17C85.68 75.78 85.64 76.26 84.95 76.46C84.19 76.68 83.52 76.38 83.37 75.66C83.16 74.69 83.05 73.71 82.92 72.73C82.77 71.63 82.63 70.52 82.51 69.42C82.47 69.1 82.45 68.77 82.51 68.46C82.62 67.85 83 67.48 83.65 67.52C84.23 67.55 84.65 67.78 84.66 68.46C84.66 68.57 84.74 68.67 84.83 68.88H84.81Z" fill="white"/>
<path fill-rule="evenodd" clip-rule="evenodd" d="M115.56 69.05C115.62 68.85 115.62 68.6 115.75 68.47C116.1 68.13 116.47 67.77 116.9 67.56C117.54 67.24 118.25 67.14 118.88 67.59C119.52 68.05 119.61 68.79 119.48 69.47C119.41 69.82 119.01 70.24 118.67 70.36C118.22 70.52 117.86 70.2 117.69 69.7C117.42 68.88 117.04 68.81 116.41 69.4C115.67 70.08 115.14 70.77 115.47 71.91C115.78 73 115.87 74.15 116.09 75.26C116.2 75.79 116.16 76.22 115.61 76.42C115.05 76.62 114.46 76.65 114.07 76.09C113.91 75.86 113.81 75.55 113.77 75.26C113.51 73.35 113.27 71.43 113.03 69.52C112.99 69.23 112.98 68.93 113 68.63C113.05 67.94 113.45 67.53 114.07 67.54C114.72 67.54 115.18 67.8 115.14 68.56C115.14 68.63 115.18 68.7 115.21 68.76C115.33 68.86 115.45 68.96 115.56 69.07V69.05Z" fill="white"/>
<path fill-rule="evenodd" clip-rule="evenodd" d="M209.15 68.84C209.33 68.67 209.51 68.49 209.71 68.33C210.06 68.05 210.38 67.72 210.77 67.54C211.42 67.25 212.13 67.13 212.75 67.6C213.4 68.1 213.43 68.87 213.29 69.57C213.23 69.89 212.78 70.32 212.48 70.35C212.19 70.38 211.73 70.01 211.58 69.7C211.17 68.88 210.89 68.79 210.22 69.4C209.43 70.11 209.02 70.91 209.3 72.02C209.56 73.05 209.7 74.11 209.94 75.15C210.11 75.9 209.94 76.3 209.29 76.47C208.54 76.67 207.91 76.37 207.75 75.71C207.64 75.25 207.56 74.79 207.51 74.32C207.3 72.43 207.05 70.53 206.92 68.63C206.85 67.67 207.87 67.14 208.61 67.71C208.88 67.92 208.96 68.4 209.16 68.84H209.15Z" fill="white"/>
<path fill-rule="evenodd" clip-rule="evenodd" d="M225.23 76.05C223.4 76.04 222.43 75.03 222.54 73.4C222.7 70.97 223.85 69.08 225.82 67.68C226.02 67.54 226.24 67.42 226.46 67.31C227 67.06 227.5 67.09 227.81 67.65C228.09 68.15 227.81 68.84 227.19 69.02C225.49 69.5 224.49 72.08 224.73 73.76C224.82 74.36 225.26 74.67 225.8 74.5C226.45 74.3 227.04 73.93 227.64 73.6C227.85 73.48 228 73.26 228.2 73.11C228.63 72.8 229.09 72.75 229.48 73.15C229.91 73.59 229.61 74.01 229.28 74.31C228.09 75.42 226.61 75.88 225.23 76.04V76.05Z" fill="white"/>
<path fill-rule="evenodd" clip-rule="evenodd" d="M189.77 73.12C189.9 70.8 191.22 68.84 193.42 67.44C193.87 67.15 194.45 66.96 194.84 67.46C195.03 67.71 195.03 68.21 194.95 68.55C194.9 68.77 194.56 69 194.3 69.08C192.57 69.63 191.73 72.31 191.92 73.73C192 74.34 192.44 74.71 193.03 74.51C193.67 74.3 194.27 73.93 194.87 73.6C195.1 73.47 195.27 73.13 195.49 73.09C195.88 73.03 196.38 73.01 196.69 73.21C197.13 73.49 196.88 73.96 196.58 74.23C195.14 75.54 193.46 76.26 191.49 75.94C190.27 75.75 189.74 74.87 189.77 73.11V73.12Z" fill="white"/>
<path fill-rule="evenodd" clip-rule="evenodd" d="M230.77 72.12C230.77 71.08 230.77 70.04 230.77 69C230.77 68.33 231.05 67.85 231.74 67.7C232.62 67.5 233.03 67.87 233.04 68.78C233.07 70.73 233.13 72.69 233.18 74.64C233.18 74.86 233.22 75.09 233.2 75.31C233.16 76.06 232.72 76.52 232.06 76.5C231.41 76.49 231.03 76.09 231.02 75.32C230.99 74.26 231.02 73.19 231.02 72.13H230.78L230.77 72.12Z" fill="white"/>
<path fill-rule="evenodd" clip-rule="evenodd" d="M240.76 63.13C240.7 64.08 239.15 65.6 238.39 65.57C238.14 65.57 237.84 65.35 237.69 65.13C237.59 64.99 237.64 64.63 237.77 64.47C238.26 63.83 238.78 63.2 239.36 62.63C239.54 62.46 239.98 62.36 240.19 62.47C240.47 62.61 240.65 62.97 240.77 63.12L240.76 63.13Z" fill="white"/>
<path fill-rule="evenodd" clip-rule="evenodd" d="M231.68 66.22C231.25 66.19 230.72 66.19 230.66 65.51C230.61 64.98 231.2 64.54 231.92 64.56C232.46 64.58 233 64.64 233.05 65.34C233.09 65.89 232.59 66.22 231.68 66.21V66.22Z" fill="white"/>
<path fill-rule="evenodd" clip-rule="evenodd" d="M125.91 30.44C125.49 30.98 125.24 31.34 124.95 31.67C123.83 32.95 122.5 33.88 120.79 34.23C119.47 34.5 118.06 33.73 117.58 32.46C116.89 30.65 117.19 28.89 117.8 27.17C118.31 25.7 118.91 24.25 119.6 22.86C120.75 20.57 122.57 19.12 125.2 18.86C126.11 18.77 126.86 19.04 127.36 19.86C127.43 19.98 127.56 20.07 127.72 20.24C127.9 20.08 128.07 19.95 128.21 19.8C128.71 19.28 129.29 19.22 129.9 19.56C130.5 19.9 130.7 20.39 130.56 21.12C130.01 23.97 129.59 26.84 130.04 29.75C130.11 30.19 130.38 30.59 130.56 31.01C130.96 30.76 131.47 30.6 131.75 30.26C132.62 29.2 133.05 27.93 133.28 26.6C133.67 24.25 133.9 21.89 133.59 19.5C133.36 17.74 132.35 15.88 129.63 15.38C127.81 15.05 126 14.98 124.17 15.33C121.61 15.82 119.83 17.35 118.41 19.43C116.53 22.2 115.01 25.14 114.22 28.4C113.44 31.61 113.48 34.78 115.22 37.75C116.63 40.16 120.18 41.75 122.92 41.2C124.79 40.82 126.47 40.04 128.07 38.99C128.85 38.47 129.81 38.16 130.73 37.93C131.71 37.68 132.73 38.86 132.48 39.85C132.19 41.04 131.54 41.91 130.44 42.53C127.44 44.24 124.26 45.38 120.78 45.31C115.96 45.22 112.04 42.67 110.06 37.85C108.62 34.34 108.78 30.86 109.95 27.32C111.19 23.56 112.87 20 115.2 16.81C117.62 13.5 121.1 11.93 125.08 11.37C127 11.1 128.91 11 130.85 11.35C134.36 11.97 137 13.81 137.76 17.41C138.84 22.48 138.11 27.32 135.08 31.65C133.9 33.34 132.31 34.53 130.28 35.07C128.75 35.48 127.69 35.1 127 33.7C126.62 32.94 126.45 32.07 126.18 31.25C126.12 31.05 126.06 30.85 125.93 30.45L125.91 30.44ZM126.29 23.61C125.99 23.09 125.81 22.42 125.41 22.22C125.05 22.05 124.42 22.37 123.93 22.54C123.72 22.62 123.55 22.86 123.41 23.05C122.15 24.86 121.57 26.92 121.21 29.06C121.13 29.51 121.2 30.06 121.73 30.15C122.07 30.2 122.6 30.03 122.8 29.76C123.64 28.67 124.46 27.54 125.15 26.35C125.63 25.53 125.89 24.59 126.29 23.61Z" fill="white" stroke="white" stroke-width="0.62" stroke-miterlimit="10"/>
<path fill-rule="evenodd" clip-rule="evenodd" d="M155.82 23.54C156.15 23.12 156.33 22.9 156.5 22.67C157.72 20.92 159.25 19.54 161.31 18.88C163.52 18.17 165.75 19.07 166.9 21.11C167.17 21.6 167.4 21.62 167.79 21.22C169.74 19.27 172.19 18.44 174.86 18.14C176.22 17.99 177.2 18.63 177.98 19.65C179.2 21.24 179.68 23.11 179.81 25.06C180.09 29.43 180.29 33.81 180.54 38.19C180.69 40.84 178.42 42.42 175.94 41.39C174.89 40.95 174.54 40.09 174.52 39.07C174.5 37.64 174.57 36.2 174.58 34.77C174.62 31.55 174.69 28.33 174.66 25.12C174.66 24.33 174.34 23.52 174.03 22.78C173.72 22.04 173.02 21.81 172.24 21.96C170.58 22.28 169.43 23.36 168.36 24.56C168.22 24.72 168.15 25.02 168.17 25.24C168.32 27.64 168.54 30.03 168.65 32.43C168.76 34.8 168.81 37.18 168.83 39.56C168.84 41.02 167.75 42.08 166.23 42.19C165.86 42.22 165.48 42.21 165.11 42.19C163.66 42.08 162.99 41.32 163.01 39.86C163.07 35.58 163.18 31.3 163.14 27.02C163.14 25.92 162.78 24.77 162.38 23.72C161.81 22.25 160.58 22.11 159.27 23.27C157.11 25.17 155.84 27.51 156.13 30.46C156.33 32.47 156.68 34.47 157 36.47C157.18 37.59 157.45 38.7 157.63 39.83C157.88 41.38 157.55 41.92 156.08 42.5C155.19 42.85 154.29 42.79 153.39 42.5C152 42.05 151.9 40.82 151.76 39.68C151.28 35.85 150.88 32 150.41 28.17C150.19 26.35 149.84 24.55 149.6 22.73C149.38 21.06 151.3 19.38 152.95 19.63C154.43 19.85 155.17 20.67 155.43 22.07C155.51 22.5 155.65 22.91 155.82 23.57V23.54Z" fill="white"/>
<path fill-rule="evenodd" clip-rule="evenodd" d="M214.39 23.47C214.53 23.21 214.62 22.92 214.8 22.7C216.42 20.65 218.44 19.21 221.07 18.78C223.79 18.33 225.71 19.51 226.76 22.06C227.62 24.16 227.68 26.36 227.82 28.55C228.04 31.83 228.17 35.12 228.39 38.41C228.48 39.79 228 40.85 226.78 41.49C225.44 42.19 224.11 42.15 222.87 41.23C222.32 40.82 222.08 40.24 222.1 39.55C222.18 35.97 222.35 32.38 222.3 28.8C222.28 27.07 221.9 25.32 221.55 23.61C221.32 22.47 220.49 22.1 219.4 22.53C217.65 23.22 216.5 24.54 215.62 26.15C214.14 28.86 214.18 31.75 214.58 34.69C214.83 36.55 215.14 38.41 215.36 40.28C215.59 42.27 213.92 43.32 211.79 42.59C210.39 42.11 209.89 41.01 209.72 39.69C209.38 36.91 209.06 34.13 208.75 31.35C208.48 29.01 208.2 26.68 207.97 24.34C207.86 23.26 207.81 22.14 208.48 21.18C209.32 19.98 210.58 19.99 211.83 20.14C212.86 20.26 213.42 20.98 213.7 21.93C213.83 22.37 213.94 22.81 214.06 23.26C214.17 23.34 214.28 23.41 214.4 23.49L214.39 23.47Z" fill="white"/>
<path fill-rule="evenodd" clip-rule="evenodd" d="M252.1 29.87C252.12 34.99 249.86 38.81 245.45 41.39C241.54 43.68 236.57 42.56 234.43 38.86C233.31 36.92 232.92 34.78 233.03 32.57C233.26 27.83 235 23.73 238.28 20.29C238.79 19.75 239.28 19.19 239.84 18.71C240.1 18.49 240.53 18.27 240.83 18.33C242.7 18.74 244.68 18.68 246.45 19.59C248.78 20.79 250.37 22.64 251.35 25.05C251.98 26.6 252.22 28.19 252.11 29.87H252.1ZM246.56 30.59C246.59 28.82 246.21 26.78 245.35 24.86C245.07 24.24 244.7 23.63 244.26 23.11C243.52 22.27 242.82 22.28 242.03 23.07C241.63 23.47 241.29 23.94 241 24.42C239.52 26.88 238.91 29.59 238.89 32.43C238.89 34.09 238.99 35.75 239.81 37.27C240.57 38.67 242.04 39.13 243.3 38.29C243.75 37.99 244.16 37.62 244.5 37.2C245.99 35.38 246.58 33.24 246.55 30.58L246.56 30.59Z" fill="white"/>
<path fill-rule="evenodd" clip-rule="evenodd" d="M197.07 38.79C196.89 38.9 196.7 39 196.55 39.13C194.18 41.23 191.4 42.21 188.25 42.19C185.54 42.18 184.23 40.55 184.86 37.91C184.97 37.45 185.09 37 185.25 36.56C186.06 34.44 187.5 32.77 189.19 31.33C191.07 29.73 193.04 28.22 194.98 26.68C195.23 26.48 195.49 26.29 195.77 26.13C196.97 25.45 196.95 25.72 196.45 24.17C196.13 23.16 195.59 22.19 194.41 22.02C193.78 21.93 193.03 22 192.48 22.28C191.34 22.85 190.23 23.52 189.24 24.31C188.18 25.16 187.33 25.17 186.4 24.08C185.62 23.16 185.7 21.96 186.75 21.32C187.95 20.59 189.23 19.98 190.52 19.43C191.52 19 192.58 18.75 193.62 18.41C196.55 17.47 198.8 18.92 200.15 21.4C201.43 23.78 202.18 26.33 202.53 29C203 32.5 203.15 36.01 202.48 39.5C202.38 40.03 202.22 40.55 202.09 41.08C202.08 41.13 202.06 41.18 202.04 41.22C201.64 41.97 199.89 42.41 198.69 42.06C197.58 41.73 197.1 41.05 197.18 39.91C197.2 39.57 197.24 39.24 197.27 38.9C197.21 38.86 197.14 38.82 197.08 38.78L197.07 38.79ZM197.45 32.36C197.45 32.36 197.39 32.36 197.36 32.36C197.36 31.54 197.37 30.73 197.36 29.91C197.36 29.43 197.11 29.14 196.66 29.5C194.99 30.85 193.29 32.17 191.73 33.64C190.8 34.52 190.13 35.65 190.19 37.06C190.23 38.04 190.74 38.56 191.74 38.52C192.77 38.48 193.65 38.07 194.45 37.45C195.3 36.78 196.19 36.16 197.02 35.46C197.25 35.27 197.41 34.89 197.43 34.59C197.49 33.85 197.45 33.11 197.45 32.36Z" fill="white"/>
<path d="M9.36 45.81L11.27 45.28L12.78 44.27L13.79 43.97L14.96 44.16L15.9 43.97L17.48 42.39L19.67 41.48C19.67 41.48 21.86 41.1 22.08 41.1H24.38L25.78 42.12L26.57 43.41L26.87 45.29C26.87 45.29 27.4 48.09 27.25 47.29C27.1 46.49 27.97 48.84 27.97 48.84L27.14 52.35L26.05 54.99L24.8 57.63L23.71 59.97L22.31 62.88L21.86 65.67L22.24 68.27C22.24 68.27 23.48 69.59 23.75 69.81C24.02 70.04 25.49 70.98 25.6 71.06C25.71 71.14 27.79 71.7 27.79 71.7L29.87 71.51L31.15 69.47L32.06 67.24C32.06 67.24 33.19 65.73 33.27 65.62C33.35 65.51 35.16 63.77 35.16 63.77L36.56 62.15L37.39 60.64L37.69 57.54L36.97 54.14L35.84 51.57C35.84 51.57 34.26 49.95 34.1 49.76C33.95 49.57 31.87 47.57 31.87 47.57L31 45.61L30.58 44.44L29.56 43.65L27.71 42.37L26.2 40.56L25.22 38.71L25.07 35.92L25.64 33.73L26.73 31.88L28.09 30.11L28.92 28.56L29.26 26.6L29.45 24.07L29.98 20.79L31.07 18.75L33.07 16.3L34.69 14.6L36.43 12.83L37.33 12.08L38.54 10.53L40.01 8.34L40.76 7.36L41.78 6.38L41.55 5.81L41.51 4.68L41.77 3.25L42.2 2.04L42.94 1.06L43.85 0.23L45.17 0H46.38L48.23 0.34L49.85 2L50.38 3.93L50.04 7.63L48.53 10.95L47.44 12.53L46.23 14.15L45.48 15.24L44.38 16.3L43.7 17.21L43.62 19.1L42.83 20.38L42.41 21.66L41.66 23.36L40.45 24.23L40.49 25.32L40.72 26.38L40.68 28.38L40.57 29.48L39.81 30.31L39.06 31.06L39.36 31.93L40.61 32.2L42.5 33.33L44.01 34.87L45.18 36.23L45.33 38.68L46.43 39.51L47.9 40.08L49.15 40.86L50.17 41.93L51.08 43.1L51.42 44.53V47.21L51.91 49.25L53.95 51.29L55.31 52.8L56.37 54.23L57.05 55.59C57.05 55.59 57.85 57.51 57.96 58.38C58.07 59.26 57.96 60.95 57.96 60.95C57.96 60.95 57.76 63.09 57.58 63.51C57.4 63.94 56.33 64.95 55.93 65.2C55.53 65.46 54.18 65.85 54.18 65.85L51.61 67.21L48.82 68.72L45.2 70.53C45.2 70.53 43.63 71.92 43.24 72.72C42.85 73.52 43.06 74.26 42.23 75.51C41.4 76.76 39.99 77.85 39.99 77.85L36.59 80.57L34.63 81.25H31.08C31.08 81.25 30.33 80.26 29.42 79.97C28.51 79.68 26.17 79.97 26.17 79.97L23.15 78.01L20.36 76.14L16.13 74.23L11.6 72.57L8.13 70.38L5.26 66.53L3.45 62.38L2.54 57.02L2.01 52.64L1.18 48.94L0.43 45.92L0.96 42.6L2.47 40.85L3.98 40.62L5.49 41.85L7.6 44.34L9.36 45.81ZM61.27 37.02L59.76 38.83V40.85L60.52 42.6L61.8 43.28L63.23 42.37L65.19 40.85L66.02 39.66L65.49 38.15L64.21 36.41L62.55 36.03L61.27 37.01V37.02ZM67 32.87L65.64 35.28C65.64 35.28 65.25 35.87 66.02 37.47C66.79 39.06 66.16 38.12 68.24 38.3C70.32 38.48 70.68 37.75 70.68 37.75L71.91 35.5L74.16 33.98L76.97 32.6L80.44 30.77L83.01 28.86L85.12 26.14V23.35L83.46 20.79L81.72 19.21L80.34 18.76L78.67 18.83L77.26 19.05L76.06 20.04L73.87 22.98L72.59 25.64L71.21 27.78L69.5 30.14L67.01 32.86L67 32.87ZM67.86 56.04L68.24 57.02L68.84 58.38H70.95L72.61 57.55L74.87 56.72H77.28L79.09 56.04L80.6 54.98L80.3 53.92L80.6 53.01L81.28 53.24L82.87 53.32L84.6 51.96L84.68 49.92L84.6 48.11L82.64 46.37L80.15 45.62L78.11 46.07L75.77 47.96L74.41 49.85L72.82 51.66L71.23 52.19L69.87 52.95L68.21 54.99L67.83 56.05L67.86 56.04ZM53.81 31.66L56.07 30.3L57.46 28.04L58.41 26.23V25.75L58.1 25.32C58.1 25.32 57.66 24.94 58.39 24.45C59.12 23.96 59.67 24.25 59.67 24.25L60.29 24.57L61.8 23.89L63.88 22.38L65.58 20.8L66.64 19.44L67.02 17.78L67.85 16.87H69.36L72.3 14.76L74.26 12.42L74.94 9.1L74.03 6.76L72.9 5.48H71.09L68.37 6.16L66.63 7.82L64.37 9.78L61.88 12.12L59.99 14.23L58.18 16.04C58.18 16.04 57.15 17.26 56.78 17.63C56.41 18 55.29 19.12 55.29 19.12C55.29 19.12 54.55 20.5 53.88 21.03C53.21 21.56 51.72 22.8 51.72 22.8L50.03 24.43L49.12 26.32V29.11L50.18 30.79L51.61 31.68H53.8M0.45 19.96L0.15 22.3L0 24.16L0.1 26.43L0.4 28.79L0.8 30.4L1.45 32.23L2.88 33.51L4.31 33.76L5.72 33.28L6.73 32.17C6.73 32.17 6.9 31.37 6.85 30.85C6.79 30.33 6.23 28.39 6.23 28.39C6.23 28.39 5.89 27.07 5.88 26.55C5.88 26.03 5.85 25.84 6.08 25.52C6.31 25.2 6.96 24.79 6.96 24.79L7.84 23.78L8.32 22.75V21.28L7.97 20.13L7.11 18.72L6.05 17.44L5.14 16.5L4.28 15.93L3.1 15.55H2.14L1.51 16L1.06 17.43L0.43 19.92L0.45 19.96Z" fill="white"/>
</g>
</g>
<defs>
<linearGradient id="paint0_linear_26_3" x1="90.13" y1="53.6" x2="252.13" y2="53.6" gradientUnits="userSpaceOnUse">
<stop stop-color="#7F3300" stop-opacity="0"/>
<stop offset="0.5" stop-color="#FF6600"/>
</linearGradient>
<clipPath id="clip0_26_3">
<rect width="253" height="82" fill="white"/>
</clipPath>
</defs>
</svg>
